<?xml version="1.0" encoding="UTF-8" standalone="no"?>
<svg width="17px" height="17px" viewBox="0 0 17 17" version="1.1" xmlns="http://www.w3.org/2000/svg" xmlns:xlink="http://www.w3.org/1999/xlink">
    <!-- Generator: Sketch 3.8.3 (29802) - http://www.bohemiancoding.com/sketch -->
    <title>Business Icon</title>
    <desc>Created with Sketch.</desc>
    <defs></defs>
    <g id="Home" stroke="none" stroke-width="1" fill="none" fill-rule="evenodd">
        <g id="Left-Side-Bar" transform="translate(-18.000000, -76.000000)" fill="#009DC4">
            <path d="M20.6738043,86.1453043 C21.061663,89.1659457 23.7822174,91.5136087 27.0700543,91.5136087 C30.6230543,91.5136087 33.5136087,88.6228696 33.5136087,85.0698696 C33.5136087,81.8417174 31.1232609,79.0764457 28.1454891,78.6762065 L28.1454891,85.4021087 C28.1454891,85.8125109 27.8126957,86.1453043 27.4022935,86.1453043 L20.6738043,86.1453043 Z M27.0700543,93 C22.6975435,93 19.1401087,89.5915 19.1401087,85.4021087 C19.1401087,84.9917065 19.4729022,84.658913 19.8833043,84.658913 L26.6590978,84.658913 L26.6590978,77.8831196 C26.6590978,77.4727174 26.9918913,77.1399239 27.4022935,77.1399239 C31.5207283,77.1399239 35,80.7714565 35,85.0698696 C35,89.4425652 31.4425652,93 27.0700543,93 L27.0700543,93 Z M19.3433696,81.5673152 L23.5675,81.5673152 L23.5675,77.3433696 C21.3752391,77.6342174 19.6342174,79.3750543 19.3433696,81.5673152 L19.3433696,81.5673152 Z M24.21775,82.8678152 L18.65025,82.8678152 C18.2910326,82.8678152 18,82.5767826 18,82.2175652 C18,78.7891087 20.7892935,76 24.21775,76 C24.5769674,76 24.868,76.2910326 24.868,76.65025 L24.868,82.2175652 C24.868,82.5767826 24.5769674,82.8678152 24.21775,82.8678152 L24.21775,82.8678152 Z" id="Business-Icon"></path>
        </g>
    </g>
</svg>