<?xml version="1.0" encoding="UTF-8" standalone="no"?>
<svg width="18px" height="16px" viewBox="0 0 18 16" version="1.1" xmlns="http://www.w3.org/2000/svg" xmlns:xlink="http://www.w3.org/1999/xlink">
    <!-- Generator: Sketch 3.8.3 (29802) - http://www.bohemiancoding.com/sketch -->
    <title>Create Icon</title>
    <desc>Created with Sketch.</desc>
    <defs></defs>
    <g id="Home" stroke="none" stroke-width="1" fill="none" fill-rule="evenodd">
        <g id="Left-Side-Bar" transform="translate(-18.000000, -379.000000)" fill="#8E1972">
            <g id="Create-Icon" transform="translate(18.000000, 379.000000)">
                <path d="M2.7,12.4448889 C2.7,10.8084444 3.7431,9.77822222 5.4,9.77822222 C7.0569,9.77822222 8.1,10.8084444 8.1,12.4448889 L2.7,12.4448889 Z" id="Fill-218"></path>
                <path d="M7.2,7.11155556 C7.2,8.09288889 6.3936,8.88933333 5.4,8.88933333 C4.4064,8.88933333 3.6,8.09288889 3.6,7.11155556 C3.6,6.13022222 4.4064,5.33377778 5.4,5.33377778 C6.3936,5.33377778 7.2,6.13022222 7.2,7.11155556" id="Fill-219"></path>
                <polygon id="Fill-220" points="15.3 8.88888889 9.9 8.88888889 9.9 7.11111111 15.3 7.11111111"></polygon>
                <polygon id="Fill-221" points="15.3 12.4444444 9.9 12.4444444 9.9 10.6666667 15.3 10.6666667"></polygon>
                <path d="M1.8,14.2226667 L1.8,3.556 L6.4665,3.556 C6.8391,4.58888889 7.8282,5.33377778 9,5.33377778 C10.1718,5.33377778 11.1609,4.58888889 11.5335,3.556 L16.2,3.556 L16.2009,14.2226667 L1.8,14.2226667 Z M9,1.77822222 C9.4959,1.77822222 9.9,2.17733333 9.9,2.66711111 C9.9,3.15688889 9.4959,3.556 9,3.556 C8.5041,3.556 8.1,3.15688889 8.1,2.66711111 C8.1,2.17733333 8.5041,1.77822222 9,1.77822222 L9,1.77822222 Z M16.2,1.77822222 L11.5335,1.77822222 C11.1609,0.745333333 10.1718,0.000444444444 9,0.000444444444 C7.8282,0.000444444444 6.8391,0.745333333 6.4665,1.77822222 L1.8,1.77822222 C0.8073,1.77822222 0,2.57466667 0,3.556 L0,14.2226667 C0,15.2031111 0.8073,16.0004444 1.8,16.0004444 L16.2,16.0004444 C17.1927,16.0004444 18,15.2031111 18,14.2226667 L18,3.556 C18,2.57466667 17.1927,1.77822222 16.2,1.77822222 L16.2,1.77822222 Z" id="Fill-222"></path>
            </g>
        </g>
    </g>
</svg>