<?xml version="1.0" encoding="UTF-8" standalone="no"?>
<svg width="20px" height="19px" viewBox="0 0 20 19" version="1.1" xmlns="http://www.w3.org/2000/svg" xmlns:xlink="http://www.w3.org/1999/xlink">
    <!-- Generator: Sketch 3.8.3 (29802) - http://www.bohemiancoding.com/sketch -->
    <title>Design Icon</title>
    <desc>Created with Sketch.</desc>
    <defs></defs>
    <g id="Home" stroke="none" stroke-width="1" fill="none" fill-rule="evenodd">
        <g id="Left-Side-Bar" transform="translate(-16.000000, -117.000000)" fill="#FEA306">
            <g id="Design-Icon" transform="translate(16.000000, 117.000000)">
                <path d="M17.9154545,3.40809023 L9.46727273,11.7927519 C9.31272727,11.532 9.13636364,11.2838797 8.91545455,11.0646316 C8.69454545,10.8453835 8.44,10.6739549 8.17454545,10.5250827 L16.63,2.13230075 C16.9727273,1.79215038 17.5718182,1.79215038 17.9154545,2.13230075 C18.0872727,2.30282707 18.1818182,2.53019549 18.1818182,2.77019549 C18.1818182,3.01109774 18.0872727,3.23756391 17.9154545,3.40809023 M7.63,14.8929023 C6.68181818,15.8339549 5.21636364,16.1326015 4.11636364,16.2138045 C4.46090909,15.4216241 4.42727273,14.7431278 4.4,14.1918496 C4.32090909,12.6038797 5.38454545,11.8116992 6.34454545,11.8116992 C6.83,11.8116992 7.28636364,11.9993684 7.63,12.3404211 C8.34181818,13.045985 8.34272727,14.1846316 7.63,14.8929023 M20,2.77019549 C20,2.04748872 19.7163636,1.36809023 19.2018182,0.857413534 C18.1718182,-0.165744361 16.3745455,-0.165744361 15.3445455,0.856511278 L6.06363636,10.0676391 C5.21818182,10.1289925 4.39181818,10.4510977 3.77363636,11.0646316 C2.48727273,12.3404211 2.54090909,13.4159098 2.58363636,14.2802707 C2.62090909,15.0228271 2.64818182,15.5587669 1.74454545,16.455609 L0.433636364,17.7566617 C2.08454545,17.9650827 2.47363636,18.0453835 3.38272727,18.0453835 L3.38363636,18.0453835 C4.74363636,18.0453835 7.27090909,17.8017744 8.91545455,16.1686917 C9.54454545,15.5452331 9.89909091,14.729594 9.95727273,13.858015 L19.2009091,4.68478195 C19.7163636,4.17320301 20,3.49380451 20,2.77019549" id="Fill-180"></path>
            </g>
        </g>
    </g>
</svg>