<?xml version="1.0" encoding="UTF-8" standalone="no"?>
<svg width="18px" height="21px" viewBox="0 0 18 21" version="1.1" xmlns="http://www.w3.org/2000/svg" xmlns:xlink="http://www.w3.org/1999/xlink">
    <!-- Generator: Sketch 3.8.3 (29802) - http://www.bohemiancoding.com/sketch -->
    <title>Edit Icon</title>
    <desc>Created with Sketch.</desc>
    <defs></defs>
    <g id="Home" stroke="none" stroke-width="1" fill="none" fill-rule="evenodd">
        <g id="Left-Side-Bar" transform="translate(-20.000000, -418.000000)" fill="#FFFFFF">
            <path d="M34.1957233,428.42307 L34.1957233,437.24735 C34.1957233,437.729786 33.767886,438.120933 33.2854498,438.120933 L20.873583,438.120933 C20.3911468,438.120933 20,437.729786 20,437.24735 L20,420.610399 C20,420.127963 20.3911468,419.775691 20.873583,419.775691 L29.9531676,419.775691 C30.4356038,419.775691 30.8267505,420.166837 30.8267505,420.649274 C30.8267505,421.13171 30.4356038,421.522857 29.9531676,421.522857 L21.7471659,421.522857 L21.7471659,436.373767 L32.4485573,436.373767 L32.4485573,428.42307 C32.4485573,427.940634 32.8397041,427.549487 33.3221403,427.549487 C33.8045765,427.549487 34.1957233,427.940634 34.1957233,428.42307 L34.1957233,428.42307 Z M27.5128135,429.206456 L26.4636404,429.622718 L26.8838338,428.547992 L35.4667865,419.835313 L36.1143299,420.491592 L27.5128135,429.206456 Z M37.5011428,420.031432 L35.932843,418.441948 C35.8096678,418.317244 35.6417215,418.246921 35.4663497,418.246921 L35.4661313,418.246921 C35.2907595,418.246921 35.1228132,418.317462 34.999638,418.442166 L25.855845,427.724204 C25.7936023,427.787539 25.7446816,427.862667 25.712359,427.945439 L24.6948533,430.548716 C24.5998511,430.791572 24.6579444,431.067624 24.8427072,431.251732 C24.9680663,431.376217 25.1349207,431.442391 25.305051,431.442391 C25.3862942,431.442391 25.4681926,431.427322 25.5465967,431.39631 L28.1241032,430.373781 C28.208404,430.340148 28.2850609,430.28948 28.3488324,430.224835 L37.5011428,420.95197 C37.7529531,420.696666 37.7529531,420.286518 37.5011428,420.031432 L37.5011428,420.031432 Z" id="Edit-Icon"></path>
        </g>
    </g>
</svg>