<?xml version="1.0" encoding="UTF-8" standalone="no"?>
<svg width="19px" height="17px" viewBox="0 0 19 17" version="1.1" xmlns="http://www.w3.org/2000/svg" xmlns:xlink="http://www.w3.org/1999/xlink">
    <!-- Generator: Sketch 3.8.3 (29802) - http://www.bohemiancoding.com/sketch -->
    <title>Programming Icon</title>
    <desc>Created with Sketch.</desc>
    <defs></defs>
    <g id="Home" stroke="none" stroke-width="1" fill="none" fill-rule="evenodd">
        <g id="Left-Side-Bar" transform="translate(-17.000000, -159.000000)" fill="#12BB4F">
            <g id="Programming-Icon" transform="translate(17.000000, 159.000000)">
                <path d="M1.58333333,11.2592593 L17.4142917,11.2592593 L17.4142917,12.0634921 L1.58333333,12.0634921 L1.58333333,11.2592593 Z M17.4166667,1.60846561 L17.4150833,9.65079365 L1.58333333,9.65079365 L1.58333333,1.60846561 L17.4166667,1.60846561 Z M17.4166667,0 L1.58333333,0 C0.710125,0 0,0.721396825 0,1.60846561 L0,12.0634921 C0,12.9505608 0.710125,13.6719577 1.58333333,13.6719577 L8.70833333,13.6719577 L8.70833333,15.2804233 L5.54166667,15.2804233 L5.54166667,16.8888889 L13.4583333,16.8888889 L13.4583333,15.2804233 L10.2916667,15.2804233 L10.2916667,13.6719577 L17.4166667,13.6719577 C18.289875,13.6719577 19,12.9505608 19,12.0634921 L19,1.60846561 C19,0.721396825 18.289875,0 17.4166667,0 L17.4166667,0 Z" id="Fill-332"></path>
            </g>
        </g>
    </g>
</svg>