<?xml version="1.0" encoding="UTF-8" standalone="no"?>
<svg width="26px" height="23px" viewBox="0 0 26 23" version="1.1" xmlns="http://www.w3.org/2000/svg" xmlns:xlink="http://www.w3.org/1999/xlink">
    <!-- Generator: Sketch 42 (36781) - http://www.bohemiancoding.com/sketch -->
    <title>Page 1 Copy</title>
    <desc>Created with Sketch.</desc>
    <defs></defs>
    <g id="ServerConfiguration" stroke="none" stroke-width="1" fill="none" fill-rule="evenodd">
        <g transform="translate(-493.000000, -182.000000)" id="Page-1-Copy">
            <g transform="translate(494.000000, 183.113636)">
                <path d="M1.15783207,5.81774884 C0.571834855,5.81774884 0.0970651401,5.34719302 0.0970651401,4.76639692 L0.0970651401,1.05596067 C0.0970651401,0.47516457 0.571834855,0.00460874648 1.15783207,0.00460874648 L22.8643632,0.00460874648 C23.4503604,0.00460874648 23.9251301,0.47516457 23.9251301,1.05596067 L23.9251301,4.76639692 C23.9251301,5.34719302 23.4503604,5.81774884 22.8643632,5.81774884 L1.15783207,5.81774884 Z" id="Fill-4" fill="#FFFFFF"></path>
                <path d="M22.8643632,5.81774884 L1.15783207,5.81774884 C0.571834855,5.81774884 0.0970651401,5.34719302 0.0970651401,4.76639692 L0.0970651401,1.05596067 C0.0970651401,0.47516457 0.571834855,0.00460874648 1.15783207,0.00460874648 L22.8643632,0.00460874648 C23.4503604,0.00460874648 23.9251301,0.47516457 23.9251301,1.05596067 L23.9251301,4.76639692 C23.9251301,5.34719302 23.4503604,5.81774884 22.8643632,5.81774884 L22.8643632,5.81774884 Z" id="Stroke-6" stroke="#9B9B9B"></path>
                <path d="M22.1840092,3.00188657 C22.1840092,3.60413883 21.6913236,4.09171161 21.0844246,4.09171161 C20.4767791,4.09171161 19.98484,3.60413883 19.98484,3.00188657 C19.98484,2.3996343 20.4767791,1.91206153 21.0844246,1.91206153 C21.6913236,1.91206153 22.1840092,2.3996343 22.1840092,3.00188657 L21.5104269,3.08495927" id="Fill-8" fill="#FFFFFF"></path>
                <path d="M21.0844246,4.09171161 C20.4767791,4.09171161 19.98484,3.60413883 19.98484,3.00188657 C19.98484,2.3996343 20.4767791,1.91206153 21.0844246,1.91206153 C21.6913236,1.91206153 22.1840092,2.3996343 22.1840092,3.00188657 C22.1840092,3.60413883 21.6913236,4.09171161 21.0844246,4.09171161 Z" id="Stroke-10" stroke="#9B9B9B"></path>
                <path d="M2.32154041,4.09185959 L2.32154041,4.09185959 C2.06325374,4.09185959 1.85274264,3.88247704 1.85274264,3.6272227 L1.85274264,2.05204448 C1.85274264,1.79679015 2.06325374,1.5874076 2.32154041,1.5874076 L2.32154041,1.5874076 C2.57982708,1.5874076 2.79033818,1.79679015 2.79033818,2.05204448 L2.79033818,3.6272227 C2.79033818,3.88247704 2.57982708,4.09185959 2.32154041,4.09185959" id="Fill-12" fill="#9B9B9B"></path>
                <path d="M4.00585316,4.09185959 L4.00585316,4.09185959 C3.74756649,4.09185959 3.53705539,3.88247704 3.53705539,3.6272227 L3.53705539,2.05204448 C3.53705539,1.79679015 3.74756649,1.5874076 4.00585316,1.5874076 C4.26413983,1.5874076 4.47465093,1.79679015 4.47465093,2.05204448 L4.47465093,3.6272227 C4.47465093,3.88247704 4.26413983,4.09185959 4.00585316,4.09185959" id="Fill-14" fill="#9B9B9B"></path>
                <path d="M5.69024056,4.09185959 L5.69024056,4.09185959 C5.43195389,4.09185959 5.22144279,3.88247704 5.22144279,3.6272227 L5.22144279,2.05204448 C5.22144279,1.79679015 5.43195389,1.5874076 5.69024056,1.5874076 L5.69024056,1.5874076 C5.94852723,1.5874076 6.15903833,1.79679015 6.15903833,2.05204448 L6.15903833,3.6272227 C6.15903833,3.88247704 5.94852723,4.09185959 5.69024056,4.09185959" id="Fill-16" fill="#9B9B9B"></path>
                <path d="M7.37455331,4.09185959 L7.37455331,4.09185959 C7.11626664,4.09185959 6.90575554,3.88247704 6.90575554,3.6272227 L6.90575554,2.05204448 C6.90575554,1.79679015 7.11626664,1.5874076 7.37455331,1.5874076 C7.63283998,1.5874076 7.84335108,1.79679015 7.84335108,2.05204448 L7.84335108,3.6272227 C7.84335108,3.88247704 7.63283998,4.09185959 7.37455331,4.09185959" id="Fill-18" fill="#9B9B9B"></path>
                <path d="M9.05894071,4.09185959 L9.05894071,4.09185959 C8.80065404,4.09185959 8.59014294,3.88247704 8.59014294,3.6272227 L8.59014294,2.05204448 C8.59014294,1.79679015 8.80065404,1.5874076 9.05894071,1.5874076 C9.31722738,1.5874076 9.52773848,1.79679015 9.52773848,2.05204448 L9.52773848,3.6272227 C9.52773848,3.88247704 9.31722738,4.09185959 9.05894071,4.09185959" id="Fill-20" fill="#9B9B9B"></path>
                <path d="M22.8643632,13.1630809 L1.15783207,13.1630809 C0.571834855,13.1630809 0.0970651401,12.692525 0.0970651401,12.1117289 L0.0970651401,8.40129268 C0.0970651401,7.82049658 0.571834855,7.34994075 1.15783207,7.34994075 L22.8643632,7.34994075 C23.4503604,7.34994075 23.9251301,7.82049658 23.9251301,8.40129268 L23.9251301,12.1117289 C23.9251301,12.692525 23.4503604,13.1630809 22.8643632,13.1630809" id="Fill-22" fill-opacity="0.2" fill="#FFFFFF"></path>
                <path d="M22.8643632,13.1630809 L1.15783207,13.1630809 C0.571834855,13.1630809 0.0970651401,12.692525 0.0970651401,12.1117289 L0.0970651401,8.40129268 C0.0970651401,7.82049658 0.571834855,7.34994075 1.15783207,7.34994075 L22.8643632,7.34994075 C23.4503604,7.34994075 23.9251301,7.82049658 23.9251301,8.40129268 L23.9251301,12.1117289 C23.9251301,12.692525 23.4503604,13.1630809 22.8643632,13.1630809 L22.8643632,13.1630809 Z" id="Stroke-24" stroke="#9B9B9B"></path>
                <path d="M22.1840092,10.3472186 C22.1840092,10.9494708 21.6913236,11.4370436 21.0844246,11.4370436 C20.4767791,11.4370436 19.98484,10.9494708 19.98484,10.3472186 C19.98484,9.74496631 20.4767791,9.25739353 21.0844246,9.25739353 C21.6913236,9.25739353 22.1840092,9.74496631 22.1840092,10.3472186" id="Fill-26" fill="#FFFFFF"></path>
                <path d="M22.1840092,10.3472186 C22.1840092,10.9494708 21.6913236,11.4370436 21.0844246,11.4370436 C20.4767791,11.4370436 19.98484,10.9494708 19.98484,10.3472186 C19.98484,9.74496631 20.4767791,9.25739353 21.0844246,9.25739353 C21.6913236,9.25739353 22.1840092,9.74496631 22.1840092,10.3472186 L22.1840092,10.3472186 Z" id="Stroke-28" stroke="#9B9B9B"></path>
                <path d="M2.32154041,11.4372656 L2.32154041,11.4372656 C2.06325374,11.4372656 1.85274264,11.227883 1.85274264,10.9726287 L1.85274264,9.39745048 C1.85274264,9.14219614 2.06325374,8.9328136 2.32154041,8.9328136 L2.32154041,8.9328136 C2.57982708,8.9328136 2.79033818,9.14219614 2.79033818,9.39745048 L2.79033818,10.9726287 C2.79033818,11.227883 2.57982708,11.4372656 2.32154041,11.4372656" id="Fill-30" fill="#9B9B9B"></path>
                <path d="M4.00585316,11.4372656 L4.00585316,11.4372656 C3.74756649,11.4372656 3.53705539,11.227883 3.53705539,10.9726287 L3.53705539,9.39745048 C3.53705539,9.14219614 3.74756649,8.9328136 4.00585316,8.9328136 C4.26413983,8.9328136 4.47465093,9.14219614 4.47465093,9.39745048 L4.47465093,10.9726287 C4.47465093,11.227883 4.26413983,11.4372656 4.00585316,11.4372656" id="Fill-32" fill="#9B9B9B"></path>
                <path d="M5.69024056,11.4372656 L5.69024056,11.4372656 C5.43195389,11.4372656 5.22144279,11.227883 5.22144279,10.9726287 L5.22144279,9.39745048 C5.22144279,9.14219614 5.43195389,8.9328136 5.69024056,8.9328136 L5.69024056,8.9328136 C5.94852723,8.9328136 6.15903833,9.14219614 6.15903833,9.39745048 L6.15903833,10.9726287 C6.15903833,11.227883 5.94852723,11.4372656 5.69024056,11.4372656" id="Fill-34" fill="#9B9B9B"></path>
                <path d="M7.37455331,11.4372656 L7.37455331,11.4372656 C7.11626664,11.4372656 6.90575554,11.227883 6.90575554,10.9726287 L6.90575554,9.39745048 C6.90575554,9.14219614 7.11626664,8.9328136 7.37455331,8.9328136 C7.63283998,8.9328136 7.84335108,9.14219614 7.84335108,9.39745048 L7.84335108,10.9726287 C7.84335108,11.227883 7.63283998,11.4372656 7.37455331,11.4372656" id="Fill-36" fill="#9B9B9B"></path>
                <path d="M9.05894071,11.4372656 L9.05894071,11.4372656 C8.80065404,11.4372656 8.59014294,11.227883 8.59014294,10.9726287 L8.59014294,9.39745048 C8.59014294,9.14219614 8.80065404,8.9328136 9.05894071,8.9328136 C9.31722738,8.9328136 9.52773848,9.14219614 9.52773848,9.39745048 L9.52773848,10.9726287 C9.52773848,11.227883 9.31722738,11.4372656 9.05894071,11.4372656" id="Fill-38" fill="#9B9B9B"></path>
                <path d="M22.8643632,20.5084129 L1.15783207,20.5084129 C0.571834855,20.5084129 0.0970651401,20.037857 0.0970651401,19.4570609 L0.0970651401,15.7466247 C0.0970651401,15.1658286 0.571834855,14.6952728 1.15783207,14.6952728 L22.8643632,14.6952728 C23.4503604,14.6952728 23.9251301,15.1658286 23.9251301,15.7466247 L23.9251301,19.4570609 C23.9251301,20.037857 23.4503604,20.5084129 22.8643632,20.5084129" id="Fill-40" fill-opacity="0.2" fill="#FFFFFF"></path>
                <path d="M22.8643632,20.5084129 L1.15783207,20.5084129 C0.571834855,20.5084129 0.0970651401,20.037857 0.0970651401,19.4570609 L0.0970651401,15.7466247 C0.0970651401,15.1658286 0.571834855,14.6952728 1.15783207,14.6952728 L22.8643632,14.6952728 C23.4503604,14.6952728 23.9251301,15.1658286 23.9251301,15.7466247 L23.9251301,19.4570609 C23.9251301,20.037857 23.4503604,20.5084129 22.8643632,20.5084129 L22.8643632,20.5084129 Z" id="Stroke-42" stroke="#9B9B9B"></path>
                <path d="M22.1840092,17.6926246 C22.1840092,18.2948768 21.6913236,18.7824496 21.0844246,18.7824496 C20.4767791,18.7824496 19.98484,18.2948768 19.98484,17.6926246 C19.98484,17.0903723 20.4767791,16.6027995 21.0844246,16.6027995 C21.6913236,16.6027995 22.1840092,17.0903723 22.1840092,17.6926246" id="Fill-44" fill="#FFFFFF"></path>
                <path d="M22.1840092,17.6926246 C22.1840092,18.2948768 21.6913236,18.7824496 21.0844246,18.7824496 C20.4767791,18.7824496 19.98484,18.2948768 19.98484,17.6926246 C19.98484,17.0903723 20.4767791,16.6027995 21.0844246,16.6027995 C21.6913236,16.6027995 22.1840092,17.0903723 22.1840092,17.6926246 L22.1840092,17.6926246 Z" id="Stroke-46" stroke="#9B9B9B"></path>
                <path d="M2.32154041,18.7825976 L2.32154041,18.7825976 C2.06325374,18.7825976 1.85274264,18.573215 1.85274264,18.3179607 L1.85274264,16.7427825 C1.85274264,16.4875281 2.06325374,16.2781456 2.32154041,16.2781456 L2.32154041,16.2781456 C2.57982708,16.2781456 2.79033818,16.4875281 2.79033818,16.7427825 L2.79033818,18.3179607 C2.79033818,18.573215 2.57982708,18.7825976 2.32154041,18.7825976" id="Fill-48" fill="#9B9B9B"></path>
                <path d="M4.00585316,18.7825976 L4.00585316,18.7825976 C3.74756649,18.7825976 3.53705539,18.573215 3.53705539,18.3179607 L3.53705539,16.7427825 C3.53705539,16.4875281 3.74756649,16.2781456 4.00585316,16.2781456 C4.26413983,16.2781456 4.47465093,16.4875281 4.47465093,16.7427825 L4.47465093,18.3179607 C4.47465093,18.573215 4.26413983,18.7825976 4.00585316,18.7825976" id="Fill-50" fill="#9B9B9B"></path>
                <path d="M5.69024056,18.7825976 L5.69024056,18.7825976 C5.43195389,18.7825976 5.22144279,18.573215 5.22144279,18.3179607 L5.22144279,16.7427825 C5.22144279,16.4875281 5.43195389,16.2781456 5.69024056,16.2781456 L5.69024056,16.2781456 C5.94852723,16.2781456 6.15903833,16.4875281 6.15903833,16.7427825 L6.15903833,18.3179607 C6.15903833,18.573215 5.94852723,18.7825976 5.69024056,18.7825976" id="Fill-52" fill="#9B9B9B"></path>
                <path d="M7.37455331,18.7825976 L7.37455331,18.7825976 C7.11626664,18.7825976 6.90575554,18.573215 6.90575554,18.3179607 L6.90575554,16.7427825 C6.90575554,16.4875281 7.11626664,16.2781456 7.37455331,16.2781456 C7.63283998,16.2781456 7.84335108,16.4875281 7.84335108,16.7427825 L7.84335108,18.3179607 C7.84335108,18.573215 7.63283998,18.7825976 7.37455331,18.7825976" id="Fill-54" fill="#9B9B9B"></path>
                <path d="M9.05894071,18.7825976 L9.05894071,18.7825976 C8.80065404,18.7825976 8.59014294,18.573215 8.59014294,18.3179607 L8.59014294,16.7427825 C8.59014294,16.4875281 8.80065404,16.2781456 9.05894071,16.2781456 C9.31722738,16.2781456 9.52773848,16.4875281 9.52773848,16.7427825 L9.52773848,18.3179607 C9.52773848,18.573215 9.31722738,18.7825976 9.05894071,18.7825976" id="Fill-56" fill="#9B9B9B"></path>
            </g>
        </g>
    </g>
</svg>