<?xml version="1.0" encoding="UTF-8" standalone="no"?>
<svg width="16px" height="20px" viewBox="0 0 16 20" version="1.1" xmlns="http://www.w3.org/2000/svg" xmlns:xlink="http://www.w3.org/1999/xlink">
    <!-- Generator: Sketch 3.8.3 (29802) - http://www.bohemiancoding.com/sketch -->
    <title>Translation Icon</title>
    <desc>Created with Sketch.</desc>
    <defs></defs>
    <g id="Home" stroke="none" stroke-width="1" fill="none" fill-rule="evenodd">
        <g id="Left-Side-Bar" transform="translate(-20.000000, -198.000000)" fill="#B14662">
            <path d="M30.8340909,209.656818 C30.9818182,209.804545 31.0659091,210.009091 31.0659091,210.220455 C31.0659091,210.429545 30.9818182,210.634091 30.8340909,210.781818 C30.6863636,210.929545 30.4795455,211.013636 30.2704545,211.013636 C30.0613636,211.013636 29.8568182,210.929545 29.7090909,210.781818 C29.5590909,210.634091 29.475,210.429545 29.475,210.220455 C29.475,210.009091 29.5590909,209.804545 29.7090909,209.656818 C30.0045455,209.361364 30.5386364,209.361364 30.8340909,209.656818 L30.8340909,209.656818 Z M24.0963636,203.113636 C24.0963636,202.674318 24.4522727,202.318182 24.8918182,202.318182 L30.3015909,202.318182 C30.7409091,202.318182 31.0970455,202.674318 31.0970455,203.113636 C31.0970455,203.552955 30.7409091,203.909091 30.3015909,203.909091 L24.8918182,203.909091 C24.4522727,203.909091 24.0963636,203.552955 24.0963636,203.113636 L24.0963636,203.113636 Z M24.0963636,206.522727 C24.0963636,206.083409 24.4522727,205.727273 24.8918182,205.727273 L30.3015909,205.727273 C30.7409091,205.727273 31.0970455,206.083409 31.0970455,206.522727 C31.0970455,206.962045 30.7409091,207.318182 30.3015909,207.318182 L24.8918182,207.318182 C24.4522727,207.318182 24.0963636,206.962045 24.0963636,206.522727 L24.0963636,206.522727 Z M23.97,210.159091 C23.97,209.719773 24.3261364,209.363636 24.7654545,209.363636 L27.4520455,209.363636 C27.8913636,209.363636 28.2475,209.719773 28.2475,210.159091 C28.2475,210.598409 27.8913636,210.954545 27.4520455,210.954545 L24.7654545,210.954545 C24.3261364,210.954545 23.97,210.598409 23.97,210.159091 L23.97,210.159091 Z M21.8181818,216.181818 L33.6363636,216.181818 L33.6363636,199.818182 L21.8181818,199.818182 L21.8181818,216.181818 Z M34.5454545,198 L20.9090909,198 C20.4070455,198 20,198.407045 20,198.909091 L20,217.090909 C20,217.592955 20.4070455,218 20.9090909,218 L34.5454545,218 C35.0475,218 35.4545455,217.592955 35.4545455,217.090909 L35.4545455,198.909091 C35.4545455,198.407045 35.0475,198 34.5454545,198 L34.5454545,198 Z" id="Translation-Icon"></path>
        </g>
    </g>
</svg>